<svg width="1440" height="1084" viewBox="0 0 1440 1084" fill="none" xmlns="http://www.w3.org/2000/svg">
<g filter="url(#filter0_f_2046_27852)">
<path d="M1263.73 85H18.0304V154.408C18.0304 168.29 4.13788 221.966 -51.4323 325.616C-120.895 455.178 -65.3248 353.379 87.4931 445.924C180.11 445.924 161.587 381.143 235.68 325.616C309.774 270.089 281.989 325.616 416.283 445.924C550.578 566.232 425.545 524.587 481.115 681.912C536.685 839.238 555.208 681.912 800.643 742.066C1046.08 802.22 870.106 709.676 1018.29 681.912C1166.48 654.149 1097.02 593.995 1097.02 552.35C1097.02 510.705 1143.33 501.45 1198.9 445.924C1254.47 390.397 1263.73 390.397 1319.3 353.379C1374.87 316.361 1379.5 251.58 1370.24 196.053C1360.98 140.527 1305.41 85 1263.73 85Z" fill="#756F8E"/>
</g>
<g filter="url(#filter1_f_2046_27852)">
<path d="M892.88 689.362C819.28 730.962 798.213 650.695 796.88 605.362L772.879 577.362C760.879 564.029 734.48 532.562 724.88 513.362C712.88 489.362 760.88 477.362 796.88 425.362C832.88 373.362 469 293 525 261C581 229 984.88 301.362 1020.88 237.362C1056.88 173.362 1145 105 1285 145C1425 185 1497 217.362 1525 237.362C1553 257.362 1303 465 1387 501C1471 537 1496.88 529.362 1504.88 577.362C1512.88 625.362 1485 661 1421 729C1357 797 1348.88 741.362 1264.88 753.362C1180.88 765.362 1204.88 721.362 1164.88 689.362C1124.88 657.362 1112.88 641.362 1056.88 625.362C1000.88 609.362 984.88 637.362 892.88 689.362Z" fill="#33B3E6"/>
</g>
<g filter="url(#filter2_f_2046_27852)">
<path d="M1019.7 258.512C924.255 230.929 979.931 159.671 1019.7 127.49C1046.91 127.49 1116.4 109.561 1176.68 37.843C1252.03 -51.8038 1270.87 37.843 1421.57 37.843C1572.27 37.843 1559.72 24.0512 1603.67 37.843C1647.63 51.6349 1710.42 127.49 1710.42 182.657C1710.42 237.824 1722.98 306.784 1710.42 410.222C1697.86 513.661 1666.46 513.661 1603.67 520.557C1540.88 527.453 1610.78 451.598 1559.72 451.598C1521.87 451.598 1462.06 420.856 1455.78 372.585C1449.5 324.314 1440.7 279.2 1384.18 258.512C1327.67 237.824 1396.46 196.449 1270.87 258.512C1145.28 320.575 1139.01 292.992 1019.7 258.512Z" fill="#FFFAE6"/>
</g>
<g filter="url(#filter3_f_2046_27852)">
<path d="M-158.807 382.98C-255.144 354.5 -198.948 280.926 -158.807 247.699C-131.343 247.699 -61.2038 229.187 -0.359497 155.138C75.6959 62.5773 94.7098 155.138 246.821 155.138C398.931 155.138 386.255 140.898 430.621 155.138C474.987 169.378 538.366 247.699 538.366 304.659C538.366 361.62 551.042 432.821 538.366 539.621C525.69 646.422 494.001 646.422 430.621 653.542C367.242 660.662 437.799 582.342 386.255 582.342C348.051 582.342 287.684 550.601 281.346 500.761C275.008 450.92 266.122 404.34 209.081 382.98C152.039 361.62 221.469 318.9 94.7098 382.98C-32.0492 447.061 -38.3864 418.58 -158.807 382.98Z" fill="#FABB78"/>
</g>
<g filter="url(#filter4_f_2046_27852)">
<path d="M60.0005 1029C510.667 1026.33 1416.8 1022.6 1436 1029V673C1436 654.333 1423.2 617 1372 617C1308 617 1324 637 1260 673C1196 709 1220 677 1128 637C1036 597 1100 617 904 617C836 705 840 617 804 565C768 513 780 529 620 617C536 705 584 633 512 637C440 641 496 589 512 529C528 469 552 461 408 461C344 457 344 425 272 353C200 281 148 321 108 325C68 329 60.0005 369 12.0005 389C-26.3995 405 -3.99952 822.333 12.0005 1029H60.0005Z" fill="#3E426D"/>
<path d="M60.0005 1029C510.667 1026.33 1416.8 1022.6 1436 1029V673C1436 654.333 1423.2 617 1372 617C1308 617 1324 637 1260 673C1196 709 1220 677 1128 637C1036 597 1100 617 904 617C836 705 840 617 804 565C768 513 780 529 620 617C536 705 584 633 512 637C440 641 496 589 512 529C528 469 552 461 408 461C344 457 344 425 272 353C200 281 148 321 108 325C68 329 60.0005 369 12.0005 389C-26.3995 405 -3.99952 822.333 12.0005 1029H60.0005Z" stroke="black"/>
</g>
<g filter="url(#filter5_f_2046_27852)">
<path d="M260.131 665.097C152.329 689.177 55.306 677.137 -95.618 665.097H-160.3H-300.443C-343.565 665.097 -246.542 608.911 109.207 608.911C314.033 604.897 260.131 568.777 260.131 536.67C260.131 504.563 421.836 528.643 260.131 665.097Z" fill="#E6FFA6"/>
<path d="M260.131 665.097C152.329 689.177 55.306 677.137 -95.618 665.097H-160.3H-300.443C-343.565 665.097 -246.542 608.911 109.207 608.911C314.033 604.897 260.131 568.777 260.131 536.67C260.131 504.563 421.836 528.643 260.131 665.097Z" stroke="#E35858"/>
</g>
<defs>
<filter id="filter0_f_2046_27852" x="-281" y="-115" width="1855" height="1077" filterUnits="userSpaceOnUse" color-interpolation-filters="sRGB">
<feFlood flood-opacity="0" result="BackgroundImageFix"/>
<feBlend mode="normal" in="SourceGraphic" in2="BackgroundImageFix" result="shape"/>
<feGaussianBlur stdDeviation="100" result="effect1_foregroundBlur_2046_27852"/>
</filter>
<filter id="filter1_f_2046_27852" x="319.128" y="-66.9102" width="1408.07" height="1030.41" filterUnits="userSpaceOnUse" color-interpolation-filters="sRGB">
<feFlood flood-opacity="0" result="BackgroundImageFix"/>
<feBlend mode="normal" in="SourceGraphic" in2="BackgroundImageFix" result="shape"/>
<feGaussianBlur stdDeviation="100" result="effect1_foregroundBlur_2046_27852"/>
</filter>
<filter id="filter2_f_2046_27852" x="767" y="-202" width="1149" height="923" filterUnits="userSpaceOnUse" color-interpolation-filters="sRGB">
<feFlood flood-opacity="0" result="BackgroundImageFix"/>
<feBlend mode="normal" in="SourceGraphic" in2="BackgroundImageFix" result="shape"/>
<feGaussianBlur stdDeviation="100" result="effect1_foregroundBlur_2046_27852"/>
</filter>
<filter id="filter3_f_2046_27852" x="-412" y="-86" width="1156" height="940" filterUnits="userSpaceOnUse" color-interpolation-filters="sRGB">
<feFlood flood-opacity="0" result="BackgroundImageFix"/>
<feBlend mode="normal" in="SourceGraphic" in2="BackgroundImageFix" result="shape"/>
<feGaussianBlur stdDeviation="100" result="effect1_foregroundBlur_2046_27852"/>
</filter>
<filter id="filter4_f_2046_27852" x="-409.702" y="-90.1699" width="2246.2" height="1519.86" filterUnits="userSpaceOnUse" color-interpolation-filters="sRGB">
<feFlood flood-opacity="0" result="BackgroundImageFix"/>
<feBlend mode="normal" in="SourceGraphic" in2="BackgroundImageFix" result="shape"/>
<feGaussianBlur stdDeviation="200" result="effect1_foregroundBlur_2046_27852"/>
</filter>
<filter id="filter5_f_2046_27852" x="-510.501" y="323.5" width="1043" height="556" filterUnits="userSpaceOnUse" color-interpolation-filters="sRGB">
<feFlood flood-opacity="0" result="BackgroundImageFix"/>
<feBlend mode="normal" in="SourceGraphic" in2="BackgroundImageFix" result="shape"/>
<feGaussianBlur stdDeviation="100" result="effect1_foregroundBlur_2046_27852"/>
</filter>
</defs>
</svg>
