<svg width="164" height="34" viewBox="0 0 164 34" fill="none" xmlns="http://www.w3.org/2000/svg">
<g clip-path="url(#clip0_2046_27867)">
<path d="M17.86 25.2898L16.25 21.0698H5.83L4.22 25.2898H0L8.63 3.31982H13.44L22.07 25.2898H17.85H17.86ZM11.04 6.57982L6.92 17.6798H15.16L11.04 6.57982Z" fill="white"/>
<path d="M35.1199 25.29V15.34C35.1199 12.87 33.8699 12.05 31.9199 12.05C30.1399 12.05 28.6299 13.1 27.8399 14.19V25.29H24.3799V9.37998H27.8399V11.55C28.8899 10.3 30.9399 8.97998 33.4399 8.97998C36.8699 8.97998 38.5799 10.82 38.5799 14.09V25.29H35.1199Z" fill="white"/>
<path d="M43.7504 21.5998V12.4098H41.1104V9.37979H43.7504V5.02979H47.2104V9.37979H50.4403V12.4098H47.2104V20.7398C47.2104 21.8298 47.7404 22.6198 48.7304 22.6198C49.3904 22.6198 50.0203 22.3598 50.2803 22.0598L51.1003 24.6598C50.4703 25.2498 49.4504 25.6798 47.8404 25.6798C45.1704 25.6798 43.7603 24.2298 43.7603 21.5998H43.7504Z" fill="white"/>
<path d="M60.6503 8.98021C65.4303 8.98021 68.4903 12.6402 68.4903 17.6402V18.4602H56.2003C56.4603 20.8602 58.2803 22.8402 61.2703 22.8402C62.8203 22.8402 64.6603 22.2102 65.7803 21.0902L67.3603 23.3602C65.7803 24.8802 63.4403 25.6702 60.9003 25.6702C56.1203 25.6702 52.5703 22.3402 52.5703 17.3002C52.5703 12.6902 55.9303 8.97021 60.6403 8.97021L60.6503 8.98021ZM56.1703 16.0302H65.1303C65.0603 14.1502 63.7803 11.8102 60.6503 11.8102C57.6803 11.8102 56.3303 14.0802 56.1703 16.0302Z" fill="white"/>
<path d="M71.9102 25.2898V3.31982H75.3702V25.2898H71.9102Z" fill="white"/>
<path d="M78.8604 17.3202C78.8604 12.7702 81.9903 8.99023 87.0303 8.99023C92.0703 8.99023 95.2304 12.7802 95.2304 17.3202C95.2304 21.8602 92.1304 25.6902 87.0303 25.6902C81.9303 25.6902 78.8604 21.9002 78.8604 17.3202ZM91.6404 17.3202C91.6404 14.5202 89.9903 12.0502 87.0303 12.0502C84.0703 12.0502 82.4503 14.5202 82.4503 17.3202C82.4503 20.1202 84.1003 22.6202 87.0303 22.6202C89.9604 22.6202 91.6404 20.1502 91.6404 17.3202Z" fill="white"/>
<path d="M102.18 31.35H98.7197V9.37998H102.18V11.55C103.37 9.96998 105.21 8.97998 107.29 8.97998C111.41 8.97998 114.34 12.08 114.34 17.31C114.34 22.54 111.41 25.68 107.29 25.68C105.28 25.68 103.47 24.79 102.18 23.08V31.35ZM106.26 12.05C104.65 12.05 102.93 13.01 102.18 14.19V20.48C102.94 21.63 104.65 22.62 106.26 22.62C108.99 22.62 110.74 20.41 110.74 17.32C110.74 14.23 108.99 12.05 106.26 12.05Z" fill="white"/>
<path d="M124.91 8.98021C129.69 8.98021 132.75 12.6402 132.75 17.6402V18.4602H120.46C120.72 20.8602 122.54 22.8402 125.53 22.8402C127.08 22.8402 128.92 22.2102 130.04 21.0902L131.62 23.3602C130.04 24.8802 127.7 25.6702 125.16 25.6702C120.38 25.6702 116.83 22.3402 116.83 17.3002C116.83 12.6902 120.19 8.97021 124.9 8.97021L124.91 8.98021ZM120.43 16.0302H129.39C129.32 14.1502 128.04 11.8102 124.91 11.8102C121.95 11.8102 120.59 14.0802 120.43 16.0302Z" fill="white"/>
<path d="M158.18 33.65L147.43 19.32L136.68 33.65H131.59L144.71 16.4L132.35 0H137.44L147.43 13.47L157.37 0H162.46L150.15 16.34L163.22 33.64H158.18V33.65Z" fill="#47EEB2"/>
</g>
<defs>
<clipPath id="clip0_2046_27867">
<rect width="163.22" height="33.65" fill="white"/>
</clipPath>
</defs>
</svg>
