<svg xmlns="http://www.w3.org/2000/svg" viewBox="0 0 32 40" x="0px" y="0px">

  <path fill="url(#paint0_linear_2046_27866)" d="M30.769,19.863l-2.877-5.651A1,1,0,0,0,27,13.666H5a1,1,0,0,0-.892.546L1.231,19.863a1,1,0,0,0,.892,1.454H4v7.366a1,1,0,0,0,1,1H27a1,1,0,0,0,1-1V21.317h1.877a1,1,0,0,0,.892-1.454Zm-25.156-4.2h8.756L12.51,19.317H3.754ZM6,21.317h7.123a1,1,0,0,0,.892-.546L15,18.835v8.848H6Zm20,6.366H17V18.835l.985,1.936a1,1,0,0,0,.892.546H26Zm-6.51-8.366-1.859-3.651h8.756l1.859,3.651ZM12.942,6.951a1,1,0,0,1-.121-1.409l2.414-2.869a1.034,1.034,0,0,1,1.53,0l2.414,2.869a1,1,0,1,1-1.53,1.288L17,6.058v5.168a1,1,0,0,1-2,0V6.058l-.649.772A1,1,0,0,1,12.942,6.951Z"/>
  <defs>
    <linearGradient id="paint0_linear_2046_27866" x1="140.5" y1="0" x2="40.5" y2="212" gradientUnits="userSpaceOnUse">
      <stop stop-color="#47DAEE" stop-opacity="0.28"/>
      <stop offset="1" stop-color="#47E4EE" stop-opacity="0"/>
    </linearGradient>
  </defs>
</svg>
